<?xml version="1.0" encoding="UTF-8" standalone="no"?>
<!-- Created with Inkscape (http://www.inkscape.org/) -->

<svg
   width="180"
   height="180"
   viewBox="0 0 180 180"
   version="1.1"
   id="svg1"
   inkscape:version="1.4 (86a8ad7, 2024-10-11)"
   sodipodi:docname="icon.svg"
   xml:space="preserve"
   xmlns:inkscape="http://www.inkscape.org/namespaces/inkscape"
   xmlns:sodipodi="http://sodipodi.sourceforge.net/DTD/sodipodi-0.dtd"
   xmlns="http://www.w3.org/2000/svg"
   xmlns:svg="http://www.w3.org/2000/svg"><sodipodi:namedview
     id="namedview1"
     pagecolor="#ffffff"
     bordercolor="#000000"
     borderopacity="0.25"
     inkscape:showpageshadow="2"
     inkscape:pageopacity="0.0"
     inkscape:pagecheckerboard="0"
     inkscape:deskcolor="#d1d1d1"
     inkscape:document-units="px"
     inkscape:zoom="2.0820366"
     inkscape:cx="-61.478265"
     inkscape:cy="68.4426"
     inkscape:window-width="1920"
     inkscape:window-height="991"
     inkscape:window-x="-9"
     inkscape:window-y="-9"
     inkscape:window-maximized="1"
     inkscape:current-layer="layer1" /><defs
     id="defs1" /><g
     inkscape:label="Layer 1"
     inkscape:groupmode="layer"
     id="layer1"><path
       style="fill:#000000;stroke-width:1.41458"
       d="M 82.074552,176.62927 C 65.558728,174.92629 50.694821,169.12937 37.413226,159.2114 33.23746,156.09316 23.977796,146.83092 20.852802,142.64636 11.910191,130.67168 6.2133079,117.14244 4.0879117,102.83224 0.6483715,79.673991 6.5689774,56.516474 20.800358,37.464146 23.971143,33.219241 33.209862,23.968497 37.413226,20.829653 44.251166,15.723449 52.633895,11.142946 60.332827,8.3058902 81.171568,0.62681622 105.80942,1.5611156 125.84775,10.790304 c 10.567,4.86691 18.73839,10.685583 26.88742,19.145968 12.82143,13.311315 20.85257,29.852976 23.48124,48.364101 0.86697,6.105197 0.86697,17.335098 0,23.440297 -2.11298,14.87967 -7.84399,28.70748 -16.95352,40.90569 -3.13062,4.19209 -12.38711,13.44859 -16.5792,16.5792 -11.96336,8.93415 -25.41425,14.60178 -39.81412,16.77595 -5.20004,0.78512 -16.08277,1.11366 -20.795018,0.62776 z m 33.461868,-36.09659 c 0,-0.24475 -6.40717,-8.30494 -14.23818,-17.91153 l -14.238192,-17.46652 2.772825,-1.04389 c 8.476502,-3.19112 14.230777,-7.713236 17.734547,-13.937067 1.02406,-1.819058 2.8048,-6.79869 3.3652,-9.410371 l 0.20046,-0.934214 h 5.0629 5.0629 l 0.34595,-1.104072 c 0.57201,-1.825565 3.4436,-13.051411 3.4436,-13.462007 0,-0.269474 -2.02287,-0.381357 -6.89501,-0.381357 h -6.89499 l -0.60773,-2.632788 c -0.33424,-1.448033 -1.1948,-3.890909 -1.91234,-5.428615 l -1.30462,-2.795829 6.9956,-0.09175 6.99561,-0.09175 1.90957,-7.30386 1.90957,-7.303861 -32.776662,-0.08663 c -18.027162,-0.04764 -32.879297,0.02879 -33.004743,0.169857 -0.228919,0.257421 -4.395432,17.696577 -4.395432,18.397304 0,0.263367 3.002495,0.373619 10.174712,0.373619 6.139251,0 10.888711,0.149383 11.974935,0.376643 2.854543,0.597228 5.600912,2.229794 7.107179,4.224831 0.724612,0.959739 1.317475,1.843991 1.317475,1.965001 0,0.121003 -6.070902,0.25999 -13.490891,0.308844 l -13.490892,0.08882 -1.783727,6.794289 c -0.981049,3.736858 -1.789366,7.060287 -1.796258,7.385395 -0.01174,0.552026 1.020176,0.596948 15.607045,0.679429 l 15.619578,0.08833 -0.824394,1.779231 c -1.184413,2.556241 -3.529877,4.913168 -6.04558,6.075129 l -2.117886,0.978215 -10.191433,0.169857 -10.191433,0.169857 -0.08758,6.624432 -0.08758,6.624428 16.148512,19.27881 16.148512,19.27879 h 13.239433 c 10.68826,0 13.23944,-0.0857 13.23944,-0.44501 z"
       id="path1" /></g></svg>
